<?xml version="1.0" encoding="utf-8"?>
<!-- Generator: Adobe Illustrator 16.0.0, SVG Export Plug-In . SVG Version: 6.00 Build 0)  -->
<!DOCTYPE svg PUBLIC "-//W3C//DTD SVG 1.0//EN" "http://www.w3.org/TR/2001/REC-SVG-20010904/DTD/svg10.dtd">
<svg version="1.0" id="Layer_1" xmlns="http://www.w3.org/2000/svg" xmlns:xlink="http://www.w3.org/1999/xlink" x="0px" y="0px"
	 width="807.208px" height="325px" viewBox="0 0 807.208 325" enable-background="new 0 0 807.208 325" xml:space="preserve">
<g>
	<rect fill="#E9AD0C" width="325" height="325"/>
	<g id="Letters">
		<g id="M">
			<path id="m-top" fill="#231F20" d="M270.5,146v-5c0-6.63-5.37-12-11.999-12h-2.251h-2.75h-20.499C226.37,129,221,134.37,221,141
				c0-6.63-5.37-12-11.999-12H171.5v17h82H270.5z"/>
			<path fill="#231F20" d="M251,146c1.381,0,2.5,1.119,2.5,2.5V146H251z"/>
			<path fill="#231F20" d="M210,146c1.381,0,2.5,1.119,2.5,2.5V146H210z"/>
			<path id="m-3_2_" fill="#231F20" d="M258.501,129H253.5v22.898v2.133V211h17v-56.969V141C270.5,134.37,265.13,129,258.501,129z"
				/>
			<path id="m-2" fill="#231F20" d="M218,146.025V146h-5.5v1.101v6.525V158v10.898V211h17v-53
				C229.5,151.539,224.396,146.289,218,146.025z"/>
			<path id="m-1" fill="#231F20" d="M177,146.025V146h-5.5v1.101v6.525V158v10.898V211h17v-53
				C188.5,151.539,183.396,146.289,177,146.025z"/>
		</g>
		<g id="M_1_">
			<path id="b-top" fill="#231F20" d="M141.5,129v5.5v9V194v17h5c6.63,0,12-5.37,12-11.999v-2.251V194v-20.499
				c0-6.631-5.37-12.001-12-12.001c6.63,0,12-5.37,12-11.999V143.5v-9V129H141.5z"/>
			<path fill="#231F20" d="M141.5,191.5c0,1.381-1.119,2.5-2.5,2.5h2.5V191.5z"/>
			<path fill="#231F20" d="M141.5,159c0,1.381-1.119,2.5-2.5,2.5h2.5V159z"/>
			<path id="b-3" fill="#231F20" d="M135.602,194h-2.133h-26.635h-18.5H59.5v17h28.833h18.5h26.635H146.5c6.63,0,12-5.37,12-11.999
				V194H135.602z"/>
			<path id="b-2" fill="#231F20" d="M140.399,161.5h-6.525H129.5h-10.898h-11.768h-18.5H59.5v17h28.833h18.5H129.5
				c6.461,0,11.711-5.104,11.975-11.5h0.025v-5.5H140.399z"/>
			<path id="b-1" fill="#231F20" d="M140.399,129h-6.525H129.5h-10.898h-11.768h-18.5H59.5v17h28.833h18.5H129.5
				c6.461,0,11.711-5.104,11.975-11.5h0.025V129H140.399z"/>
		</g>
	</g>
</g>
<g>
	<path id="Bench" fill="#FFFFFF" d="M738.68,155.589h-1.875c-3.316,0-4.976-1.85-4.976-5.551v-28.167H691.72v28.167
		c0,3.701-1.704,5.551-5.282,5.551h-1.703c-3.49,0-5.147-1.85-5.147-5.551V83.03c0-3.699,1.657-5.551,5.147-5.551h1.703
		c3.578,0,5.282,1.852,5.282,5.551v28.099h40.109V83.03c0-3.699,1.659-5.551,4.976-5.551h1.875c3.578,0,5.281,1.852,5.281,5.551
		v67.008C743.961,153.739,742.258,155.589,738.68,155.589z M664.56,99.22c-1.192,0.377-1.728,0.413-1.943,0.189
		c-2.078-3.834-5.021-6.731-8.996-8.869c-3.978-2.05-8.088-3.076-12.507-3.076c-7.691,0-13.894,2.664-18.775,8.077
		c-4.886,5.328-7.328,12.356-7.328,20.916c0,8.514,2.464,15.542,7.395,21c4.93,5.459,11.325,8.147,19.016,8.147
		c5.214,0,9.734-1.214,13.734-3.644c3.826-2.428,6.621-5.694,8.213-9.881c0.045-0.224,0.772-0.2,2.01,0.154
		c1.238,0.351,2.464,1.026,3.68,2.183c1.217,1.073,1.91,2.499,1.91,4.279c0,3.655-2.795,7.545-8.384,11.756
		c-5.417,4.124-12.724,6.272-21.912,6.272c-11.315,0-20.571-3.774-27.603-11.153c-7.203-7.465-10.803-17.123-10.803-28.89
		c0-11.812,3.625-21.516,10.869-29.026c7.247-7.511,16.551-11.308,27.91-11.308c8.531,0,15.438,1.948,20.72,5.671
		c5.283,3.81,8.009,7.406,8.009,10.707c0,1.781-0.672,3.208-1.67,4.279C666.934,98.161,665.752,98.842,664.56,99.22z M590.68,153.75
		c-1.104,1.228-2.41,1.84-4.262,1.84h-0.886c-1.681,0-2.92-0.235-3.715-0.705c-0.795-0.555-1.657-1.546-2.76-2.974l-39.667-56.936
		v55.063c0,3.701-1.683,5.551-5.215,5.551h-1.261c-3.271,0-4.906-1.85-4.906-5.551v-65.65c0-2.182,0.452-3.843,1.534-5.069
		c0.907-1.226,2.42-1.84,4.189-1.84h2.012c1.784,0,3.136,0.283,4.021,1.015c0.885,0.648,2.032,1.862,3.271,3.643l37.657,54.152
		V83.03c0-3.699,1.658-5.551,5.145-5.551h1.33c3.271,0,4.907,1.852,4.907,5.551v65.65
		C592.075,150.862,591.609,152.525,590.68,153.75z M513.28,144.246c3.677,0,5.425,1.628,5.425,4.967v0.602
		c0,3.523-1.748,5.327-5.425,5.327h-44.875c-1.987,0-3.578-0.612-4.771-1.839c-1.021-1.225-1.702-2.864-1.702-5.001V84.834
		c0-2.05,0.681-3.699,1.702-5.035c1.192-1.249,2.783-1.875,4.771-1.875h44.133c3.713,0,5.657,1.674,5.657,5.105v0.757
		c0,3.432-1.944,5.104-5.657,5.104h-38.475v21.637h29.681c3.888,0,5.658,1.626,5.658,4.881v0.379c0,3.431-1.771,5.104-5.658,5.104
		h-29.681v23.354H513.28z M421.89,87.843h-17.618v23.733h17.925c4.464,0,8.054-1.059,10.598-3.266c2.716-2.205,3.987-5.2,3.987-8.9
		C436.781,91.699,431.876,87.843,421.89,87.843z M404.271,145.226h18.367c6.102,0,10.53-1.001,13.291-3.007
		c2.59-1.918,4.056-5.149,4.056-9.606c0-8.111-5.657-12.169-16.972-12.169h-18.742V145.226z M435.964,114.583
		c5.563,1.25,9.656,3.523,12.269,6.909c2.782,3.299,4.253,7.333,4.253,12.013c0,7.264-2.379,12.701-7.15,16.311
		c-4.601,3.523-11.892,5.327-21.879,5.327h-24.773c-1.988,0-3.578-0.624-4.772-1.874c-1.189-1.334-1.702-2.983-1.702-5.035V84.834
		c0-2.05,0.513-3.699,1.702-5.035c1.194-1.249,2.784-1.875,4.772-1.875h25.082c8.222,0,14.63,1.674,19.049,5.105
		c4.419,3.433,6.543,8.445,6.543,14.952C449.356,106.317,444.893,111.823,435.964,114.583z"/>
	<path id="Market" fill="#FFFFFF" d="M801.618,196.803h-20.753v61.061c0,3.787-1.895,5.637-5.35,5.637h-1.635
		c-3.536,0-5.215-1.85-5.215-5.637v-61.061h-20.771c-3.869,0-5.639-1.781-5.639-5.26v-0.601c0-3.432,1.77-5.104,5.639-5.104h53.724
		c3.679,0,5.59,1.673,5.59,5.104v0.601C807.208,195.021,805.297,196.803,801.618,196.803z M731.523,252.157
		c3.666,0,5.587,1.627,5.587,4.882v0.602c0,3.609-1.921,5.413-5.587,5.413h-44.713c-1.988,0-3.578-0.612-4.771-1.839
		c-1.191-1.312-1.703-2.95-1.703-5.002v-63.467c0-2.051,0.512-3.786,1.703-5.035c1.193-1.249,2.783-1.873,4.771-1.873h44.131
		c3.717,0,5.658,1.673,5.658,5.104v0.756c0,3.346-1.941,5.104-5.658,5.104h-38.474v21.635h29.683c3.885,0,5.656,1.628,5.656,4.882
		v0.294c0,3.431-1.771,5.189-5.656,5.189h-29.683v23.354H731.523z M671.137,259.788c-0.421,0.825-1.239,1.65-2.455,2.474
		c-1.217,0.826-2.532,1.238-4.122,1.238c-2.522,0-4.818-1.179-6.543-3.455l-31.115-34.387v32.205c0,3.787-1.702,5.637-5.282,5.637
		h-1.703c-3.459,0-5.146-1.85-5.146-5.637v-66.921c0-3.701,1.687-5.637,5.146-5.637h1.703c3.58,0,5.282,1.936,5.282,5.637v31.02
		l30.433-32.671c2.25-2.629,4.396-3.985,6.782-3.985c1.59,0,2.873,0.423,4.021,1.356c1.008,0.849,1.749,1.685,2.146,2.51
		c0.398,0.911,0.637,1.392,0.376,1.615l-30.364,32.756l31.182,34.629C671.783,258.396,671.725,258.962,671.137,259.788z
		 M576.094,195.978h-15.711v27.188h15.914c5.565,0,9.655-1.204,12.438-3.609c2.783-2.321,4.09-5.706,4.09-9.984
		C592.825,200.479,587.189,195.978,576.094,195.978z M599.232,224.814c-3.978,4.012-9.611,6.264-16.904,6.84l22.254,26.812
		c0.307,0.229,0.068,0.778-0.376,1.578c-0.442,0.804-1.271,1.594-2.487,2.287c-1.216,0.777-2.703,1.168-4.122,1.168
		c-2.876,0-5.589-1.603-7.976-4.804l-20.753-25.838h-8.417v25.005c0,3.787-1.704,5.637-5.284,5.637h-1.634
		c-3.318,0-4.976-2.073-4.976-6.307v-64.447c0-2.051,0.51-3.786,1.704-5.035c1.192-1.249,2.782-1.873,4.771-1.873h21.57
		c9.326,0,16.477,1.896,21.162,5.86c4.839,3.878,7.259,9.606,7.259,17.271C605.024,215.609,603.036,220.891,599.232,224.814z
		 M505.996,197.781l-12.373,32.67h24.572L505.996,197.781z M541.026,261.283c-0.534,0.602-1.386,1.169-2.554,1.615
		c-1.173,0.532-2.331,0.756-3.322,0.756c-3.474,0-5.881-1.959-7.21-5.791l-6.781-17.495h-30.433l-6.609,17.649
		c-1.456,3.787-3.602,5.637-6.783,5.637c-1.147,0-2.125-0.224-3.271-0.756c-1.149-0.446-1.989-1.001-2.522-1.495
		c-0.705-0.577-1.01-1.109-0.749-1.512l27.086-70.823c0.937-2.63,3.742-3.988,8.252-3.988c2.737,0,4.544,0.357,5.931,0.982
		c1.045,0.623,2.045,1.625,2.487,3.006l27.228,70.823C542.035,260.247,541.73,260.682,541.026,261.283z M459.103,263.5h-1.636
		c-3.226,0-4.838-1.85-4.838-5.637v-56.628l-16.732,38.376c-0.795,1.828-1.662,3.197-2.761,4.021
		c-1.103,0.826-2.762,1.238-5.147,1.238c-2.43,0-4.088-0.4-4.975-1.204c-0.885-0.8-1.76-2.096-2.761-4.056l-16.595-38.083v56.335
		c0,3.787-1.637,5.637-4.908,5.637h-1.771c-3.181,0-4.771-1.85-4.771-5.637v-65.719c0-2.05,0.704-3.688,1.942-5
		c1.237-1.227,2.896-1.839,4.976-1.839h3.203c2.122,0,3.736,0.423,4.838,1.356c0.931,0.849,2.034,2.477,2.966,4.881l18.096,41.16
		l18.162-41.16c0.933-2.404,1.863-4.032,2.966-4.881c1.103-0.934,2.523-1.356,4.771-1.356h2.896c2.122,0,3.987,0.612,5.248,1.839
		c1.262,1.312,1.978,2.95,1.978,5v65.719C464.25,261.65,462.42,263.5,459.103,263.5z"/>
</g>
</svg>