<?xml version="1.0" encoding="utf-8"?>
<!-- Generator: Adobe Illustrator 16.0.0, SVG Export Plug-In . SVG Version: 6.00 Build 0)  -->
<!DOCTYPE svg PUBLIC "-//W3C//DTD SVG 1.0//EN" "http://www.w3.org/TR/2001/REC-SVG-20010904/DTD/svg10.dtd">
<svg version="1.0" id="Layer_1" xmlns="http://www.w3.org/2000/svg" xmlns:xlink="http://www.w3.org/1999/xlink" x="0px" y="0px"
	 width="325px" height="325px" viewBox="0 0 325 325" enable-background="new 0 0 325 325" xml:space="preserve">
<g>
	<rect width="325" height="325"/>
	<g id="Letters">
		<g id="M">
			<path id="m-top" fill="#FFFFFF" d="M270.5,146v-5c0-6.63-5.37-12-11.999-12h-2.251h-2.75h-20.499C226.37,129,221,134.37,221,141
				c0-6.63-5.37-12-11.999-12H171.5v17h82H270.5z"/>
			<path fill="#FFFFFF" d="M251,146c1.381,0,2.5,1.119,2.5,2.5V146H251z"/>
			<path fill="#FFFFFF" d="M210,146c1.381,0,2.5,1.119,2.5,2.5V146H210z"/>
			<path id="m-3_2_" fill="#FFFFFF" d="M258.501,129H253.5v22.898v2.133V211h17v-56.969V141C270.5,134.37,265.13,129,258.501,129z"
				/>
			<path id="m-2" fill="#FFFFFF" d="M218,146.025V146h-5.5v1.101v6.525V158v10.898V211h17v-53
				C229.5,151.539,224.396,146.289,218,146.025z"/>
			<path id="m-1" fill="#FFFFFF" d="M177,146.025V146h-5.5v1.101v6.525V158v10.898V211h17v-53
				C188.5,151.539,183.396,146.289,177,146.025z"/>
		</g>
		<g id="M_1_">
			<path id="b-top" fill="#FFFFFF" d="M141.5,129v5.5v9V194v17h5c6.63,0,12-5.37,12-11.999v-2.251V194v-20.499
				c0-6.631-5.37-12.001-12-12.001c6.63,0,12-5.37,12-11.999V143.5v-9V129H141.5z"/>
			<path fill="#FFFFFF" d="M141.5,191.5c0,1.381-1.119,2.5-2.5,2.5h2.5V191.5z"/>
			<path fill="#FFFFFF" d="M141.5,159c0,1.381-1.119,2.5-2.5,2.5h2.5V159z"/>
			<path id="b-3" fill="#FFFFFF" d="M135.602,194h-2.133h-26.635h-18.5H59.5v17h28.833h18.5h26.635H146.5c6.63,0,12-5.37,12-11.999
				V194H135.602z"/>
			<path id="b-2" fill="#FFFFFF" d="M140.399,161.5h-6.525H129.5h-10.898h-11.768h-18.5H59.5v17h28.833h18.5H129.5
				c6.461,0,11.711-5.104,11.975-11.5h0.025v-5.5H140.399z"/>
			<path id="b-1" fill="#FFFFFF" d="M140.399,129h-6.525H129.5h-10.898h-11.768h-18.5H59.5v17h28.833h18.5H129.5
				c6.461,0,11.711-5.104,11.975-11.5h0.025V129H140.399z"/>
		</g>
	</g>
</g>
</svg>
