<svg width="20" height="20" viewBox="0 0 20 20" fill="none" xmlns="http://www.w3.org/2000/svg">
<path fill-rule="evenodd" clip-rule="evenodd" d="M7.82285 5.95162C7.82285 6.47041 7.42784 6.89025 6.8101 6.89025C6.21644 6.89025 5.82143 6.47041 5.83365 5.95162C5.82143 5.40762 6.21643 5 6.82194 5C7.42783 5 7.81101 5.40762 7.82285 5.95162ZM5.88332 13.6746V7.63176H7.76134V13.6742H5.88332V13.6746Z" fill="black"/>
<path fill-rule="evenodd" clip-rule="evenodd" d="M9.26658 9.56026C9.26658 8.80652 9.24175 8.16396 9.21692 7.63256H10.8482L10.9349 8.46041H10.9719C11.2191 8.07724 11.8368 7.49695 12.8377 7.49695C14.0732 7.49695 15 8.31257 15 10.0913V13.6754H13.122V10.3266C13.122 9.54765 12.8504 9.01664 12.1707 9.01664C11.6516 9.01664 11.3429 9.37497 11.2195 9.72071C11.1698 9.84448 11.1454 10.0172 11.1454 10.1906V13.6754H9.26734V9.56026H9.26658Z" fill="black"/>
</svg>